<svg xmlns="http://www.w3.org/2000/svg" viewBox="0 0 512 512">
<rect width="512" height="512" rx="112" fill="#0f172a"/>
<circle cx="256" cy="270" r="150" fill="#f8fafc"/>
<ellipse cx="256" cy="285" rx="118" ry="105" fill="#f8fafc"/>
<circle cx="202" cy="245" r="13" fill="#0f172a"/>
<circle cx="310" cy="245" r="13" fill="#0f172a"/>
<path d="M226 300c20 18 40 18 60 0" fill="none" stroke="#0f172a" stroke-width="12" stroke-linecap="round"/>
<path d="M160 210c-38-42-70-22-72 13 35 3 61 13 80 35M352 210c38-42 70-22 72 13-35 3-61 13-80 35" fill="#f8fafc" stroke="#0f172a" stroke-width="10"/>
<rect x="235" y="137" width="42" height="16" rx="8" fill="#0f172a"/>
<circle cx="256" cy="158" r="14" fill="#f8fafc" stroke="#0f172a" stroke-width="8"/>
<path d="M256 145v-27" stroke="#0f172a" stroke-width="10" stroke-linecap="round"/>
<circle cx="256" cy="118" r="8" fill="#f8fafc" stroke="#0f172a" stroke-width="6"/>
<path d="M136 354v42M376 354v42" stroke="#0f172a" stroke-width="22" stroke-linecap="round"/>
</svg>